<svg id="Capa_1" enable-background="new 0 0 512 512" height="512" viewBox="0 0 512 512" width="512" xmlns="http://www.w3.org/2000/svg"><g><circle cx="256" cy="256" fill="#471a52" r="256"/><path d="m512 256c0 141.5-114.52 256-256 256v-512c141.5 0 256 114.52 256 256z" fill="#26072d"/><path d="m0 256c0 45.689 11.904 89.544 34.218 128.046l221.782-128.046z" fill="#671c80"/><path d="m256 256h256c0-45.689-11.904-89.544-34.218-128.046z" fill="#471a52"/><circle cx="256" cy="256" fill="#f23866" r="99.377"/><path d="m355.38 256c0 54.8-44.58 99.38-99.38 99.38v-198.76c54.8 0 99.38 44.58 99.38 99.38z" fill="#d9215e"/><circle cx="256" cy="256" fill="#ff698e" r="69.377"/><path d="m325.38 256c0 38.25-31.13 69.38-69.38 69.38v-138.76c38.25 0 69.38 31.13 69.38 69.38z" fill="#f23866"/><path d="m368.169 390.377c-4.738-6.796-14.087-8.465-20.883-3.727-22.913 15.974-49.742 25.708-77.587 28.15-8.253.724-14.356 8.001-13.632 16.253.723 8.246 7.989 14.346 16.233 13.634 4.045-.901 47.189-2.089 92.143-33.428 6.796-4.737 8.464-14.086 3.726-20.882z" fill="#471a52"/><path d="m255.933 80.957c-.723-8.246-7.989-14.346-16.233-13.634-4.046.901-47.179 2.086-92.134 33.438-6.795 4.739-8.462 14.089-3.723 20.884 3.181 4.561 8.44 6.812 13.609 6.365 2.531-.219 5.041-1.084 7.275-2.642 22.913-15.98 49.738-25.716 77.574-28.158 8.252-.723 14.356-8 13.632-16.253z" fill="#671c80"/><circle cx="256" cy="256.05" fill="#e7f4fd" r="15"/><path d="m271 256.05c0 8.28-6.72 15-15 15v-30c8.28 0 15 6.72 15 15z" fill="#d0e9fb"/></g></svg>